<?xml version="1.0"?><svg width="640" height="480" xmlns="http://www.w3.org/2000/svg">
 <g>
  <path fill="#ff4000" fill-rule="evenodd" stroke-width="3.75" id="path671" d="m271.335052,360.757324c0,0 12.771118,37.857788 27.244202,69.693085c14.47406,31.836334 40.016327,47.323273 43.422241,47.323273c3.404877,0 6.810791,-18.06839 5.95932,-28.393372c-0.851501,-10.324921 -24.690765,-30.97583 16.177002,1.720001c40.866821,32.695801 69.813934,46.462708 67.259491,35.277313c4.257416,-27.533844 -43.421204,-85.181 -12.770111,-74.856079c30.650085,10.324921 82.585052,34.416779 50.232025,-3.441986c-32.353058,-37.857788 -65.557556,-55.066681 -37.460907,-54.206177c28.095703,0.860474 55.339874,13.766937 41.718262,-11.185455c-13.622559,-24.952362 -79.160065,-63.757904 -107.255707,-80.106293c-22.136383,11.185455 -65.577637,40.527527 -94.525818,98.17569z"/>
  <path fill="#ffff33" fill-opacity="0.696296" fill-rule="evenodd" stroke-width="12.5" stroke-linejoin="round" id="path672" d="m284.053986,339.743011c0,0 9.327026,44.940002 19.502014,58.505981c10.174988,13.567017 12.718994,11.871002 15.263,-6.78299c2.544006,-18.653992 -15.263,-37.30899 15.261993,-16.958008c30.526001,20.350006 56.811005,45.787018 41.549011,14.414001c-15.263,-31.372986 -19.502991,-39.003998 1.695007,-27.980988c21.197998,11.02298 41.548981,19.501984 16.109985,-11.02301c-19.501007,-22.04599 19.502014,-27.981995 26.286011,-30.524994c16.110992,2.544006 -68.681,-44.94101 -77.160004,-44.94101c-9.328003,1.696014 -55.115997,58.507019 -58.507019,65.291016z"/>
  <path fill="#00ffff" fill-rule="evenodd" stroke="#000000" stroke-width="10" stroke-linejoin="round" id="path663" d="m17.80632,31.099018c78.857002,1.695702 278.117996,33.916607 354.430984,229.786694c-26.28598,5.088013 -90.72699,67.834015 -100.901978,102.598022c-194.174004,-99.206024 -249.289406,-256.072014 -253.529007,-332.384716z"/>
  <path fill="#007fff" fill-rule="evenodd" stroke="#000000" stroke-width="10" stroke-linejoin="round" id="path664" d="m163.649323,292.258728c0,0 3.390991,86.488007 3.390991,87.335999c0,0.847992 104.295013,48.332001 110.230011,50.876007l-5.087006,-67.834015c-9.326996,0.847992 -92.423996,-52.570984 -108.533997,-70.377991z"/>
  <path fill="#007fff" fill-rule="evenodd" stroke="#000000" stroke-width="10" stroke-linejoin="round" id="path665" d="m304.73349,151.352798c0,0 85.530975,3.820038 86.378693,3.840881c0.847748,0.020828 45.754395,105.451248 48.151794,111.446976l-67.688538,-6.752472c-9.098633,-33.045578 -46.892822,-88.600128 -66.841949,-108.535385z"/>
  <path fill="#007fff" fill-rule="evenodd" stroke="#000000" stroke-width="10" stroke-linejoin="round" id="path666" d="m235.316772,210.169052c0,0 14.259979,34.122604 16.66716,39.685852c2.953842,3.748337 77.589035,64.656357 83.067612,68.074173l-3.178864,-21.680725c-7.994232,-7.698639 -76.803391,-68.015976 -96.555908,-86.0793z"/>
  <path fill="#007fff" fill-rule="evenodd" stroke="#000000" stroke-width="10" stroke-linejoin="round" id="path667" d="m232.636536,209.39949l-16.768509,24.280228l20.644791,35.733917l85.753967,67.744385l12.387604,-18.545471l-81.991364,-69.240036l-20.026489,-39.973022z"/>
  <path fill="#bfbfbf" fill-rule="evenodd" stroke="#000000" stroke-width="12.5" stroke-linejoin="round" id="path668" d="m124.644997,131.154007c-28.829796,39.003998 30.52401,87.335999 58.506004,52.570999c33.916992,-42.396011 -24.589005,-83.096008 -58.506004,-52.570999z"/>
  <path fill="#aeffff" fill-rule="evenodd" stroke="#000000" stroke-width="10" stroke-linejoin="round" id="path669" d="m132.276001,135.393005c21.197998,-20.350006 70.376999,4.23999 48.332001,40.700989c-24.589996,31.372009 -74.617004,-8.478989 -48.332001,-40.700989z"/>
  <path fill="#ffffff" fill-opacity="0.75" fill-rule="evenodd" stroke-width="12.5" stroke-linejoin="round" id="path670" d="m148.386002,134.501999c-6.860886,4.737549 -24.900513,19.623886 -10.175003,37.352005c12.718994,3.391998 30.524994,-35.656006 10.175003,-37.352005z"/>
  <title>Layer 1</title>
 </g>
</svg>